<svg xmlns="http://www.w3.org/2000/svg" viewBox="0 0 100 100">
  <rect width="100" height="100" rx="20" fill="#6F4E37"/>
  <path fill="#D4A574" d="M22 35h50v28a16 16 0 01-16 16H38a16 16 0 01-16-16V35z"/>
  <rect fill="#D4A574" x="72" y="42" width="14" height="12" rx="5"/>
  <path fill="#F5E6CC" d="M28 42h38v21a12 12 0 01-12 12H40a12 12 0 01-12-12V42z"/>
  <ellipse fill="#6F4E37" cx="47" cy="42" rx="14" ry="4"/>
  <path fill="none" stroke="#F5E6CC" stroke-width="2.5" stroke-linecap="round" d="M34 52q4-4 8 0q4 4 8 0q4-4 8 0"/>
  <path fill="#FFF" opacity="0.15" d="M30 38l3-4h28l3 4z"/>
</svg>
